<mxfile host="app.diagrams.net" modified="2023-10-17T11:29:05.074Z" agent="Mozilla/5.0 (Windows NT 10.0; Win64; x64) AppleWebKit/537.36 (KHTML, like Gecko) Chrome/116.0.0.0 Safari/537.36 OPR/102.0.0.0" version="22.0.4" etag="c2B6Y7ZyjrRO5WIeS7as" type="github">
  <diagram name="Page-1" id="4ROUj5DaJrfbhKrhDue4">
    <mxGraphModel>
      <root>
        <mxCell id="0" />
        <mxCell id="1" parent="0" />
      </root>
    </mxGraphModel>
  </diagram>
</mxfile>
